<svg width="304" height="225" viewBox="0 0 304 225" fill="none" xmlns="http://www.w3.org/2000/svg">
<g id="Union">
<path fill-rule="evenodd" clip-rule="evenodd" d="M250.669 181.675C281.537 162.961 301 135.608 301 105.139C301 48.729 234.29 3 152 3C69.7096 3 3 48.729 3 105.139C3 161.548 69.7096 207.277 152 207.277C179.865 207.277 205.943 202.034 228.25 192.908C240.855 210.71 249.726 217.333 269 222C256.68 212.89 254.722 202.392 252.575 190.881C252.015 187.879 251.442 184.808 250.669 181.675Z" fill="white"/>
<path d="M250.669 181.675L249.373 179.537C248.438 180.104 247.98 181.212 248.242 182.273L250.669 181.675ZM228.25 192.908L230.29 191.463C229.618 190.514 228.38 190.154 227.303 190.594L228.25 192.908ZM269 222L268.412 224.43C269.568 224.71 270.761 224.136 271.265 223.058C271.769 221.981 271.443 220.697 270.486 219.99L269 222ZM252.575 190.881L255.033 190.422L255.033 190.422L252.575 190.881ZM298.5 105.139C298.5 134.454 279.769 161.109 249.373 179.537L251.965 183.812C283.306 164.812 303.5 136.761 303.5 105.139H298.5ZM152 5.5C192.706 5.5 229.449 16.8145 255.945 34.9778C282.454 53.1489 298.5 77.9975 298.5 105.139H303.5C303.5 75.8702 286.192 49.6494 258.772 30.8537C231.342 12.05 193.584 0.5 152 0.5V5.5ZM5.5 105.139C5.5 77.9975 21.5465 53.1489 48.0546 34.9778C74.5511 16.8145 111.294 5.5 152 5.5V0.5C110.416 0.5 72.6585 12.05 45.2276 30.8537C17.8083 49.6494 0.5 75.8702 0.5 105.139H5.5ZM152 204.777C111.294 204.777 74.5511 193.463 48.0546 175.3C21.5465 157.128 5.5 132.28 5.5 105.139H0.5C0.5 134.407 17.8083 160.628 45.2276 179.424C72.6585 198.227 110.416 209.777 152 209.777V204.777ZM227.303 190.594C205.312 199.591 179.557 204.777 152 204.777V209.777C180.173 209.777 206.574 204.477 229.196 195.222L227.303 190.594ZM269.588 219.57C260.133 217.281 253.434 214.561 247.584 210.351C241.711 206.123 236.53 200.276 230.29 191.463L226.209 194.353C232.575 203.342 238.132 209.708 244.664 214.409C251.22 219.127 258.593 222.052 268.412 224.43L269.588 219.57ZM250.117 191.339C252.269 202.877 254.349 214.276 267.514 224.01L270.486 219.99C259.011 211.505 257.175 201.907 255.033 190.422L250.117 191.339ZM248.242 182.273C248.995 185.326 249.556 188.327 250.117 191.339L255.033 190.422C254.474 187.43 253.889 184.29 253.097 181.076L248.242 182.273Z" fill="#242124"/>
</g>
</svg>
